<svg width="40" height="40" viewBox="0 0 40 40" fill="none" xmlns="http://www.w3.org/2000/svg">
<path fill-rule="evenodd" clip-rule="evenodd" d="M40.0005 20C40.0005 31.0453 31.0458 40 20.0005 40C8.95516 40 0.000488281 31.0453 0.000488281 20C0.000488281 8.95467 8.95516 0 20.0005 0C31.0458 0 40.0005 8.95467 40.0005 20Z" fill="#004284"/>
<path fill-rule="evenodd" clip-rule="evenodd" d="M13.133 29.7964L19.705 17.2871C19.8477 17.0164 20.2517 17.0164 20.3943 17.2871L26.9717 29.7964C27.0383 29.9218 27.1677 30.0004 27.309 30.0004H30.4877C30.7037 30.0004 30.841 29.7698 30.7397 29.5791L20.385 10.2004C20.2423 9.93376 19.857 9.93376 19.7143 10.2004L9.35967 29.5791C9.25834 29.7698 9.39567 29.9991 9.61167 29.9991H12.7957C12.937 29.9991 13.0663 29.9218 13.133 29.7964Z" fill="white"/>
</svg>
